# xmcd
#
# Track frame offsets:
#	150
#	31510
#	49882
#	71405
#	101185
#	115660
#	132010
#	147310
#	165382
#	182710
#	197202
#	210610
#	227270
#	242510
#
# Disc length: 3475 seconds
#
# Revision: 1
# Processed by: cddbd v1.5.1PL2 Copyright (c) Steve Scherf et al.
# Submitted via: EasyCDDAExtractor 5.1.0
#
DISCID=b60d910e
DTITLE=Danses - Brazil
DYEAR=2000
DGENRE=Danses
TTITLE0=Sourie
TTITLE1=Guachita
TTITLE2=Ó Mato [Instrumental]
TTITLE3=Viva Meu Samba
TTITLE4=Te Quiero Mi Brazil
TTITLE5=Summer Love
TTITLE6=Trinidad Strut
TTITLE7=Jorge de Sousa Guedes
TTITLE8=Festejando
TTITLE9=Lambada
TTITLE10=Soca Dance
TTITLE11=Rio
TTITLE12=Perdóname
TTITLE13=Assombraco
EXTD=
EXTT0=
EXTT1=
EXTT2=
EXTT3=
EXTT4=
EXTT5=
EXTT6=
EXTT7=
EXTT8=
EXTT9=
EXTT10=
EXTT11=
EXTT12=
EXTT13=
PLAYORDER=
